<svg width="199" height="233" viewBox="0 0 199 233" fill="none" xmlns="http://www.w3.org/2000/svg">
<g clip-path="url(#clip0_153_93)">
<path d="M23.1309 59.5C-10.4691 39.5 -0.202416 6.16667 9.13092 -8H225.631C222.964 50.6667 214.531 167.5 202.131 165.5C186.631 163 182.131 129 139.131 147C104.731 161.4 72.7976 128.667 61.1309 110.5C62.4642 101.833 56.7309 79.5 23.1309 59.5Z" fill="#01D57E" fill-opacity="0.8"/>
<path d="M29.4223 97.9673C-13.3166 72.4955 -0.257468 30.0425 11.6144 12H287C283.608 86.7172 272.881 235.515 257.108 232.968C237.392 229.784 231.668 186.482 176.973 209.406C133.217 227.746 92.5977 186.057 77.7578 162.92C79.4538 151.883 72.1611 123.439 29.4223 97.9673Z" fill="#01D57E" fill-opacity="0.6"/>
<path d="M43.1309 39.5C9.5309 19.5 19.7976 -13.8333 29.1309 -28H245.631C242.964 30.6667 234.531 147.5 222.131 145.5C206.631 143 202.131 109 159.131 127C124.731 141.4 92.7976 108.667 81.1309 90.5C82.4642 81.8333 76.7309 59.5 43.1309 39.5Z" fill="#01D57E"/>
</g>
<defs>
<clipPath id="clip0_153_93">
<rect width="199" height="233" fill="white"/>
</clipPath>
</defs>
</svg>
