<svg width="188" height="191" viewBox="0 0 188 191" fill="none" xmlns="http://www.w3.org/2000/svg">
<g clip-path="url(#clip0_153_121)">
<path d="M164.869 173.5C198.469 193.5 188.202 226.833 178.869 241H-37.6309C-34.9642 182.333 -26.5309 65.5 -14.1309 67.5C1.36913 70 5.86912 104 48.8691 86C83.2691 71.6 115.202 104.333 126.869 122.5C125.536 131.167 131.269 153.5 164.869 173.5Z" fill="#01D57E" fill-opacity="0.8"/>
<path d="M158.578 135.033C201.317 160.505 188.257 202.957 176.386 221H-99C-95.608 146.283 -84.8809 -2.51489 -69.1083 0.0322879C-49.3924 3.21626 -43.6685 46.5183 11.027 23.5937C54.7835 5.254 95.4023 46.9428 110.242 70.0797C108.546 81.1175 115.839 109.561 158.578 135.033Z" fill="#01D57E" fill-opacity="0.6"/>
<path d="M144.869 193.5C178.469 213.5 168.202 246.833 158.869 261H-57.6309C-54.9642 202.333 -46.5309 85.5 -34.1309 87.5C-18.6309 90 -14.1309 124 28.8691 106C63.2691 91.6 95.2025 124.333 106.869 142.5C105.536 151.167 111.269 173.5 144.869 193.5Z" fill="#01D57E"/>
</g>
<defs>
<clipPath id="clip0_153_121">
<rect width="188" height="191" fill="white"/>
</clipPath>
</defs>
</svg>
