<svg width="128" height="128" viewBox="0 0 128 128" fill="none" xmlns="http://www.w3.org/2000/svg">
<path d="M0 30C0 13.4315 13.4315 0 30 0H98C114.569 0 128 13.4315 128 30V98C128 114.569 114.569 128 98 128H30C13.4315 128 0 114.569 0 98V30Z" fill="#02BF71"/>
<path d="M67.96 108.44C63.08 108.44 58.4 107.64 53.92 106.04C49.52 104.36 45.6 101.88 42.16 98.6C38.8 95.24 36.08 91.08 34 86.12C32 81.08 31 75.24 31 68.6C31 62.04 32 56.24 34 51.2C36 46.08 38.72 41.8 42.16 38.36C45.6 34.84 49.64 32.16 54.28 30.32C58.92 28.48 63.88 27.56 69.16 27.56C74.2 27.56 78.76 28.6 82.84 30.68C86.92 32.68 90.36 35 93.16 37.64L81.88 50.36C80.04 48.76 78.12 47.52 76.12 46.64C74.12 45.76 71.8 45.32 69.16 45.32C66.76 45.32 64.52 45.84 62.44 46.88C60.36 47.92 58.56 49.4 57.04 51.32C55.52 53.24 54.32 55.6 53.44 58.4C52.56 61.2 52.12 64.36 52.12 67.88C52.12 75.24 53.8 80.88 57.16 84.8C60.52 88.72 64.84 90.68 70.12 90.68C72.68 90.68 75 90.12 77.08 89C79.24 87.8 81.16 86.28 82.84 84.44L94.12 96.92C90.84 100.76 86.96 103.64 82.48 105.56C78.08 107.48 73.24 108.44 67.96 108.44Z" fill="white"/>
</svg>
